<svg width="1558" height="423" viewBox="0 0 1558 423" fill="none" xmlns="http://www.w3.org/2000/svg">
<path d="M888.674 405.608C888.674 405.608 910.68 397.361 902.362 378.749C894.044 360.138 873.358 366.401 873.358 366.401C874.436 362.645 874.416 358.658 873.301 354.914C872.185 351.169 870.021 347.824 867.064 345.275C856.678 335.396 843.518 343.908 843.518 343.908C841.174 346.141 839.673 349.119 839.272 352.335C838.871 355.551 839.594 358.807 841.318 361.549C843.255 364.482 845.97 366.816 849.157 368.288C852.345 369.76 855.879 370.313 859.362 369.885C859.362 369.885 853.905 387.129 860.727 396.346C863.636 400.848 867.992 404.22 873.074 405.905C878.156 407.589 883.66 407.484 888.674 405.608Z" fill="#F4E776"/>
<path d="M889.82 420.426C889.82 420.426 882.866 384.924 861.345 360.755" stroke="#3C6257" stroke-linecap="round" stroke-linejoin="round"/>
<path d="M252.244 229.575C278.651 213.521 288.333 183.576 274.998 151.866C270.597 141.722 260.562 132.725 247.446 126.066C260.166 114.158 263.863 96.2965 255.765 77.5529C243.353 48.798 161.976 33.4503 149.432 84.3447C145.031 101.986 149.652 114.026 157.53 122.361C149.828 126.178 143.082 131.685 137.794 138.473C132.507 145.26 128.813 153.154 126.986 161.568C118.624 195.968 133.764 215.859 151.985 226.973C146.179 233.673 142.179 241.75 140.366 250.435C126.018 313.149 196.701 319.5 196.701 319.5C249.955 322.763 277.682 284.218 260.958 242.056C258.969 237.323 255.999 233.069 252.244 229.575Z" fill="#F4E776"/>
<path d="M225.149 420.823V108.533" stroke="#3C6257" stroke-linecap="round" stroke-linejoin="round"/>
<path d="M177.932 170.1L225.156 216.893" stroke="#3C6257" stroke-linecap="round" stroke-linejoin="round"/>
<path d="M225.149 175.612L245.79 153.561" stroke="#3C6257" stroke-linecap="round" stroke-linejoin="round"/>
<path d="M225.149 294.381L265.067 261.083" stroke="#3C6257" stroke-linecap="round" stroke-linejoin="round"/>
<path d="M88.8573 367.371C88.8573 367.371 -16.7708 355.596 4.31085 233.255C25.3925 110.915 163.105 146.991 184.319 215.879C209.537 297.821 168.387 373.237 88.8573 367.371Z" fill="#DB9680"/>
<path d="M97.4876 421C95.683 421 97.4876 200.487 97.4876 200.487" stroke="#3C6257" stroke-linecap="round" stroke-linejoin="round"/>
<path d="M36.0918 228.933L96.5639 300.688" stroke="#3C6257" stroke-linecap="round" stroke-linejoin="round"/>
<path d="M97.4863 341.747L121.341 319.917" stroke="#3C6257" stroke-linecap="round" stroke-linejoin="round"/>
<path d="M1098.08 271.844C1098.08 271.844 996.239 259.363 1016.4 129.878C1036.55 0.392361 1169.82 38.5852 1190.33 111.487C1214.76 198.281 1174.97 278.062 1098.08 271.844Z" fill="#E4B8B1"/>
<path d="M837.755 323.091V89.6562" stroke="#3C6257" stroke-linecap="round" stroke-linejoin="round"/>
<path d="M776.841 126.261L838.061 181.875" stroke="#3C6257" stroke-linecap="round" stroke-linejoin="round"/>
<path d="M838.854 208.468L888.147 166.395" stroke="#3C6257" stroke-linecap="round" stroke-linejoin="round"/>
<path d="M982.245 379.279C982.245 379.279 888.016 367.591 906.677 246.221C925.338 124.851 1048.66 160.662 1067.63 228.977C1090.16 310.302 1053.37 385.144 982.245 379.279Z" fill="white"/>
<path d="M987.655 211.071V420.25" stroke="#E4B8B1" stroke-linecap="round" stroke-linejoin="round"/>
<path d="M954.077 240.664L987.658 274.8" stroke="#E4B8B1" stroke-linecap="round" stroke-linejoin="round"/>
<path d="M987.655 337.16L1005.74 314.491L1031.18 282.561" stroke="#E4B8B1" stroke-linecap="round" stroke-linejoin="round"/>
<path d="M1106.18 94.4194V418.838" stroke="#3C6257" stroke-linecap="round" stroke-linejoin="round"/>
<path d="M1046.85 125.115L1106.18 201.766" stroke="#3C6257" stroke-linecap="round" stroke-linejoin="round"/>
<path d="M1106.18 150.033L1135.94 120.661" stroke="#3C6257" stroke-linecap="round" stroke-linejoin="round"/>
<path d="M1106.18 253.057L1168.06 197.002" stroke="#3C6257" stroke-linecap="round" stroke-linejoin="round"/>
<path d="M928.679 390.701C929.647 391.142 944.699 398.11 954.118 377.47C963.536 356.83 942.147 353.919 942.147 353.919C942.147 353.919 951.829 348.186 947.208 334.426C942.587 320.666 926.523 321.68 926.523 321.68C928.998 318.368 930.376 314.363 930.463 310.225C930.55 306.088 929.341 302.028 927.007 298.615C925.078 295.229 922.083 292.579 918.492 291.079C914.901 289.579 910.915 289.313 907.157 290.323C907.335 287.167 906.834 284.01 905.687 281.065C904.54 278.12 902.775 275.457 900.512 273.256C897.264 269.981 892.902 268.056 888.299 267.868C883.696 267.68 879.192 269.242 875.689 272.241C869.879 277.975 874.017 292.793 881.587 298.394C885.841 301.77 891.24 303.352 896.639 302.804C896.639 302.804 884.007 312.904 888.452 324.238C892.898 335.573 913.099 328.649 913.099 328.649C913.099 328.649 900.82 339.013 904.561 349.156C908.302 359.3 923.706 353.567 923.706 353.567C923.706 353.567 903.02 379.587 928.679 390.701Z" fill="#E4B8B1"/>
<path d="M943.907 420.823C943.907 420.823 949.233 341.438 896.111 291.558" stroke="#3C6257" stroke-linecap="round" stroke-linejoin="round"/>
<path d="M1040.69 401.859C1036.57 402.247 1032.46 401.05 1029.19 398.51C1025.92 395.971 1023.74 392.28 1023.09 388.187C1019.04 372.707 1036.29 370.193 1036.29 370.193C1036.29 370.193 1030.04 356.345 1039.19 346.863C1040.16 345.557 1041.4 344.475 1042.82 343.689C1044.24 342.903 1045.81 342.432 1047.43 342.306C1049.05 342.181 1050.68 342.405 1052.2 342.962C1053.73 343.52 1055.11 344.399 1056.27 345.54C1056.27 345.54 1045.75 334.205 1053.98 324.15C1062.21 314.094 1076.43 324.15 1076.43 324.15C1076.43 324.15 1075.5 315.726 1086.46 311.978C1097.42 308.229 1105.39 322.959 1100.24 328.957C1098.93 330.644 1097.25 331.998 1095.32 332.91C1093.39 333.822 1091.28 334.266 1089.15 334.205C1089.15 334.205 1097.95 342.629 1091.74 351.538C1085.54 360.446 1069.87 357.756 1069.87 357.756C1069.87 357.756 1077.88 367.503 1070.53 376.279C1068.72 378.741 1066.23 380.626 1063.37 381.706C1060.52 382.786 1057.41 383.015 1054.42 382.365C1055.12 384.568 1055.31 386.904 1054.96 389.19C1054.61 391.475 1053.73 393.648 1052.4 395.538C1051.07 397.427 1049.32 398.981 1047.29 400.078C1045.26 401.175 1043 401.784 1040.69 401.859Z" fill="#F4E776"/>
<path d="M1081 331.691C1081 331.691 1035.67 363.004 1031.05 420.911" stroke="#3C6257" stroke-linecap="round" stroke-linejoin="round"/>
<path d="M106.578 419.897H343.713C343.713 419.897 338.212 376.456 305.731 372.486C296.825 371.186 287.739 372.791 279.813 377.064C271.888 381.337 265.544 388.05 261.719 396.214C261.719 396.214 255.91 355.286 208.333 355.507C160.756 355.727 160.14 396.214 160.14 396.214C160.14 396.214 157.191 373.545 130.96 376.103C105.214 378.572 106.578 419.897 106.578 419.897Z" fill="#CDB4A8"/>
<path d="M1320.54 419.897H1557.68C1557.68 419.897 1552.17 376.456 1519.69 372.486C1510.79 371.186 1501.7 372.791 1493.78 377.064C1485.85 381.337 1479.51 388.05 1475.68 396.214C1475.68 396.214 1469.87 355.286 1422.3 355.507C1374.72 355.727 1374.1 396.214 1374.1 396.214C1374.1 396.214 1371.15 373.545 1344.92 376.103C1319.18 378.572 1320.54 419.897 1320.54 419.897Z" fill="#CDB4A8"/>
<path d="M591.682 246.97V420.999" stroke="#3C6257" stroke-linecap="round" stroke-linejoin="round"/>
<path d="M545.115 283.047L591.68 326.664" stroke="#3C6257" stroke-linecap="round" stroke-linejoin="round"/>
<path d="M591.682 365.253L625.571 339.277" stroke="#3C6257" stroke-linecap="round" stroke-linejoin="round"/>
<path d="M1242.65 420.931C1247.53 386.796 1261.61 354.641 1283.36 327.922" stroke="#3C6257" stroke-width="1.35621" stroke-linecap="round" stroke-linejoin="round"/>
<path d="M1283.3 300.947C1283.3 300.947 1285.75 301.904 1285.21 313.508C1284.68 325.111 1280.38 326.248 1280.38 326.248C1280.38 326.248 1278.59 325.051 1278.83 321.104C1279.06 317.156 1278.71 298.794 1283.3 300.947Z" fill="#DB9680"/>
<path d="M1306.53 320.984C1306.53 320.984 1306.94 323.556 1296.62 329.298C1286.29 335.04 1283.13 331.989 1283.13 331.989C1283.13 331.989 1283.13 329.836 1286.83 327.982C1290.53 326.128 1305.99 315.96 1306.53 320.984Z" fill="#DB9680"/>
<path d="M1302.7 335.04C1302.7 335.04 1302.34 337.612 1290.76 340.124C1279.18 342.636 1277.15 338.748 1277.15 338.748C1277.15 338.748 1277.93 336.715 1281.87 335.937C1285.81 335.16 1303.77 329.896 1302.7 335.04Z" fill="#DB9680"/>
<path d="M1298.04 343.713C1298.04 343.713 1297.57 346.285 1286.11 348.438C1274.65 350.591 1272.5 346.703 1272.5 346.703C1272.5 346.703 1273.33 344.729 1277.27 344.071C1281.21 343.414 1299.24 338.808 1298.04 343.713Z" fill="#DB9680"/>
<path d="M1292.37 352.385C1292.37 352.385 1291.9 354.957 1280.44 357.111C1268.98 359.264 1266.83 355.376 1266.83 355.376C1266.83 355.376 1267.66 353.402 1271.6 352.744C1275.54 352.086 1293.57 347.481 1292.37 352.385Z" fill="#DB9680"/>
<path d="M1288.5 360.879C1288.5 360.879 1288.02 363.451 1276.56 365.604C1265.1 367.758 1262.95 363.87 1262.95 363.87C1262.95 363.87 1263.79 361.896 1267.73 361.238C1271.67 360.58 1289.69 355.974 1288.5 360.879Z" fill="#DB9680"/>
<path d="M1284.14 369.433C1284.14 369.433 1283.66 372.005 1272.2 374.158C1260.74 376.311 1258.59 372.423 1258.59 372.423C1258.59 372.423 1259.43 370.45 1263.37 369.792C1267.31 369.134 1285.33 364.528 1284.14 369.433Z" fill="#DB9680"/>
<path d="M1281.69 379.062C1281.69 379.062 1281.21 381.634 1269.75 383.787C1258.29 385.94 1256.14 382.052 1256.14 382.052C1256.14 382.052 1256.98 380.078 1260.92 379.421C1264.86 378.763 1282.89 374.157 1281.69 379.062Z" fill="#DB9680"/>
<path d="M1276.73 387.196C1276.73 387.196 1276.73 389.768 1265.09 392.819C1253.45 395.869 1251.42 392.101 1251.42 392.101C1251.42 392.101 1252.08 390.067 1256.02 389.11C1259.96 388.153 1277.57 382.232 1276.73 387.196Z" fill="#DB9680"/>
<path d="M1273.99 396.886C1273.99 396.886 1273.99 399.458 1262.35 402.508C1250.71 405.559 1248.68 401.791 1248.68 401.791C1248.68 401.791 1249.34 399.757 1253.28 398.8C1257.22 397.843 1274.83 391.921 1273.99 396.886Z" fill="#DB9680"/>
<path d="M1272.8 407.712C1272.8 407.712 1272.8 410.284 1261.16 413.334C1249.52 416.384 1247.49 412.616 1247.49 412.616C1247.49 412.616 1248.15 410.583 1252.09 409.626C1256.03 408.669 1273.64 402.747 1272.8 407.712Z" fill="#DB9680"/>
<path d="M1300.8 304.715C1300.8 304.715 1302.41 306.809 1295.96 316.678C1289.52 326.547 1285.28 325.291 1285.28 325.291C1285.28 325.291 1284.38 323.377 1286.65 320.028C1288.92 316.678 1297.99 300.529 1300.8 304.715Z" fill="#DB9680"/>
<path d="M1272.91 310.218C1272.91 310.218 1275.48 310.756 1276.97 322.18C1278.46 333.605 1274.34 335.519 1274.34 335.519C1274.34 335.519 1272.37 334.621 1271.96 330.674C1271.54 326.726 1268.08 308.842 1272.91 310.218Z" fill="#DB9680"/>
<path d="M1228.39 244.125C1228.39 244.125 1230.96 244.663 1232.45 256.087C1233.94 267.511 1229.82 269.425 1229.82 269.425C1229.82 269.425 1227.85 268.528 1227.44 264.581C1227.02 260.633 1223.68 242.749 1228.39 244.125Z" fill="#DB9680"/>
<path d="M1218.72 253.934C1218.72 253.934 1221.35 253.934 1224.15 265.418C1226.96 276.902 1223.14 278.936 1223.14 278.936C1223.14 278.936 1221.11 278.278 1220.21 274.45C1219.32 270.622 1213.71 253.097 1218.72 253.934Z" fill="#DB9680"/>
<path d="M1209.05 266.196C1209.05 266.196 1211.68 266.196 1215.68 277.022C1219.67 287.848 1216.09 290.599 1216.09 290.599C1216.09 290.599 1214 290.181 1212.69 286.413C1211.38 282.644 1203.98 265.957 1209.05 266.196Z" fill="#DB9680"/>
<path d="M1199.56 279.056C1199.56 279.056 1202.13 278.517 1208.16 288.386C1214.18 298.255 1211.2 301.605 1211.2 301.605C1211.2 301.605 1209.05 301.605 1207.02 298.196C1204.99 294.786 1194.55 279.833 1199.56 279.056Z" fill="#DB9680"/>
<path d="M1193.59 291.077C1193.59 291.077 1196.16 290.539 1202.19 300.408C1208.22 310.277 1205.23 313.627 1205.23 313.627C1205.23 313.627 1203.08 313.627 1201.06 310.217C1199.03 306.808 1188.52 291.855 1193.59 291.077Z" fill="#DB9680"/>
<path d="M1193.23 307.885C1193.23 307.885 1195.86 308.304 1197.83 319.848C1199.8 331.392 1195.8 333.306 1195.8 333.306C1195.8 333.306 1193.77 332.528 1193.17 328.58C1192.58 324.633 1188.28 306.689 1193.23 307.885Z" fill="#DB9680"/>
<path d="M1186.61 283.96C1186.61 283.96 1188.99 285.037 1188.1 296.58C1187.2 308.124 1182.79 309.081 1182.79 309.081C1182.79 309.081 1181.06 307.825 1181.47 303.878C1181.89 299.93 1182.31 281.627 1186.61 283.96Z" fill="#DB9680"/>
<path d="M1179.62 269.545C1179.62 269.545 1182.01 270.622 1181.11 282.165C1180.22 293.709 1175.8 294.666 1175.8 294.666C1175.8 294.666 1174.07 293.41 1174.49 289.462C1174.91 285.515 1175.08 267.212 1179.62 269.545Z" fill="#DB9680"/>
<path d="M1168.34 256.148C1168.34 256.148 1170.84 256.865 1171.5 268.469C1172.16 280.073 1167.92 281.568 1167.92 281.568C1167.92 281.568 1166.01 280.551 1165.89 276.604C1165.77 272.656 1163.56 254.473 1168.34 256.148Z" fill="#DB9680"/>
<path d="M1144.35 290.42C1144.35 290.42 1145.9 288.266 1156.94 291.556C1167.98 294.846 1168.1 299.152 1168.1 299.152C1168.1 299.152 1166.49 300.588 1162.73 299.152C1158.97 297.717 1141.12 294.367 1144.35 290.42Z" fill="#DB9680"/>
<path d="M1148.58 304.357C1148.58 304.357 1149.78 302.024 1161.24 303.46C1172.7 304.895 1173.17 309.441 1173.17 309.441C1173.17 309.441 1171.86 311.116 1167.92 310.577C1163.98 310.039 1146.02 308.783 1148.58 304.357Z" fill="#DB9680"/>
<path d="M1153.6 313.209C1153.6 313.209 1154.91 310.936 1166.25 313.209C1177.59 315.482 1178.19 319.848 1178.19 319.848C1178.19 319.848 1176.76 321.463 1172.88 320.626C1169 319.788 1150.79 317.456 1153.6 313.209Z" fill="#DB9680"/>
<path d="M1158.37 324.035C1158.37 324.035 1159.68 321.762 1171.02 324.035C1182.37 326.308 1182.96 330.674 1182.96 330.674C1182.96 330.674 1181.53 332.289 1177.65 331.452C1173.77 330.615 1155.5 328.222 1158.37 324.035Z" fill="#DB9680"/>
<path d="M1160.76 335.039C1160.76 335.039 1162.08 332.767 1173.42 335.039C1184.76 337.312 1185.36 341.679 1185.36 341.679C1185.36 341.679 1183.92 343.294 1180.04 342.456C1176.16 341.619 1157.96 339.047 1160.76 335.039Z" fill="#DB9680"/>
<path d="M1167.51 345.328C1167.51 345.328 1169.54 343.653 1179.44 349.635C1189.35 355.616 1188.22 359.982 1188.22 359.982C1188.22 359.982 1186.31 360.999 1182.97 358.846C1179.62 356.693 1163.39 348.319 1167.51 345.328Z" fill="#DB9680"/>
<path d="M1171.08 359.743C1171.08 359.743 1173.11 358.068 1183.02 364.05C1192.93 370.031 1191.8 374.397 1191.8 374.397C1191.8 374.397 1189.89 375.414 1186.54 373.261C1183.2 371.108 1166.97 362.734 1171.08 359.743Z" fill="#DB9680"/>
<path d="M1174.67 372.961C1174.67 372.961 1176.7 371.286 1186.61 377.267C1196.52 383.249 1195.38 387.615 1195.38 387.615C1195.38 387.615 1193.47 388.632 1190.13 386.479C1186.79 384.325 1170.55 375.892 1174.67 372.961Z" fill="#DB9680"/>
<path d="M1178.25 387.376C1178.25 387.376 1180.28 385.701 1190.19 391.682C1200.1 397.664 1198.97 402.03 1198.97 402.03C1198.97 402.03 1197.06 403.047 1193.71 400.894C1190.37 398.74 1174.19 390.307 1178.25 387.376Z" fill="#DB9680"/>
<path d="M1174.67 400.833C1174.67 400.833 1176.7 399.159 1186.61 405.14C1196.52 411.121 1195.38 415.488 1195.38 415.488C1195.38 415.488 1193.47 416.504 1190.13 414.351C1186.79 412.198 1170.55 403.525 1174.67 400.833Z" fill="#DB9680"/>
<path d="M1142.5 403.704C1142.5 403.704 1144.41 401.85 1154.97 407.054C1165.54 412.258 1164.76 416.744 1164.76 416.744C1164.76 416.744 1162.91 417.88 1159.33 416.026C1155.75 414.172 1138.86 406.815 1142.5 403.704Z" fill="#DB9680"/>
<path d="M1139.93 387.376C1139.93 387.376 1141.96 385.701 1151.87 391.682C1161.78 397.664 1160.64 402.03 1160.64 402.03C1160.64 402.03 1158.73 403.047 1155.39 400.894C1152.05 398.74 1135.81 390.307 1139.93 387.376Z" fill="#DB9680"/>
<path d="M1136.35 374.158C1136.35 374.158 1138.38 372.483 1148.29 378.464C1158.2 384.445 1156.76 388.872 1156.76 388.872C1156.76 388.872 1154.85 389.888 1151.51 387.735C1148.17 385.582 1132.23 376.909 1136.35 374.158Z" fill="#DB9680"/>
<path d="M1133.9 362.135C1133.9 362.135 1135.93 360.46 1145.84 366.441C1155.75 372.423 1154.61 376.789 1154.61 376.789C1154.61 376.789 1152.7 377.806 1149.36 375.652C1146.02 373.499 1129.78 364.946 1133.9 362.135Z" fill="#DB9680"/>
<path d="M1115.76 311.713C1115.76 311.713 1117.97 310.277 1127.04 317.694C1136.11 325.111 1134.5 329.059 1134.5 329.059C1134.5 329.059 1132.47 329.836 1129.43 327.264C1126.38 324.692 1111.28 314.165 1115.76 311.713Z" fill="#DB9680"/>
<path d="M1114.08 325.948C1114.08 325.948 1115.93 324.094 1126.38 329.059C1136.82 334.023 1136.17 338.449 1136.17 338.449C1136.17 338.449 1134.38 339.645 1130.85 337.851C1127.33 336.057 1110.26 329.059 1114.08 325.948Z" fill="#DB9680"/>
<path d="M1122.44 339.107C1122.44 339.107 1124.29 337.253 1134.74 342.217C1145.18 347.182 1144.53 351.608 1144.53 351.608C1144.53 351.608 1142.74 352.804 1139.22 351.01C1135.69 349.215 1118.68 342.516 1122.44 339.107Z" fill="#DB9680"/>
<path d="M1128.47 352.326C1128.47 352.326 1130.32 350.472 1140.76 355.437C1151.21 360.401 1150.79 364.947 1150.79 364.947C1150.79 364.947 1149 366.143 1145.48 364.349C1141.96 362.554 1124.65 355.736 1128.47 352.326Z" fill="#DB9680"/>
<path d="M1131.93 305.971C1131.93 305.971 1134.56 305.971 1138.91 316.558C1143.27 327.145 1139.75 330.136 1139.75 330.136C1139.75 330.136 1137.6 329.777 1136.23 326.068C1134.85 322.36 1126.92 305.852 1131.93 305.971Z" fill="#DB9680"/>
<path d="M1145.37 315.242C1145.37 315.242 1147.99 315.242 1151.34 326.606C1154.68 337.971 1150.62 340.184 1150.62 340.184C1150.62 340.184 1148.53 339.586 1147.57 335.758C1146.62 331.93 1140.29 314.524 1145.37 315.242Z" fill="#DB9680"/>
<path d="M1157.36 339.227C1157.36 339.227 1159.98 339.227 1163.33 350.591C1166.67 361.956 1162.61 364.169 1162.61 364.169C1162.61 364.169 1160.52 363.571 1159.56 359.742C1158.61 355.914 1152.28 338.569 1157.36 339.227Z" fill="#DB9680"/>
<path d="M1167.81 370.27C1167.81 370.27 1170.38 370.868 1171.51 382.232C1172.64 393.597 1168.53 395.511 1168.53 395.511C1168.53 395.511 1166.61 394.554 1166.26 390.606C1165.9 386.658 1162.74 368.774 1167.81 370.27Z" fill="#DB9680"/>
<path d="M1139.57 279.653C1139.57 279.653 1141.12 277.5 1152.16 280.79C1163.21 284.08 1163.27 288.566 1163.27 288.566C1163.27 288.566 1161.65 290.001 1157.89 288.566C1154.13 287.13 1136.35 283.541 1139.57 279.653Z" fill="#DB9680"/>
<path d="M1129.97 266.435C1129.97 266.435 1131.52 264.281 1142.56 267.571C1153.6 270.861 1153.66 275.347 1153.66 275.347C1153.66 275.347 1152.05 276.782 1148.29 275.347C1144.53 273.911 1126.92 270.382 1129.97 266.435Z" fill="#DB9680"/>
<path d="M1135.63 248.491C1135.63 248.491 1137.96 247.235 1146.43 255.19C1154.91 263.145 1152.94 267.153 1152.94 267.153C1152.94 267.153 1150.85 267.751 1148.04 265C1145.24 262.248 1130.97 250.585 1135.63 248.491Z" fill="#DB9680"/>
<path d="M1157.66 245.321C1157.66 245.321 1160.23 245.799 1161.9 257.283C1163.57 268.768 1159.51 270.682 1159.51 270.682C1159.51 270.682 1157.54 269.844 1157.06 265.897C1156.59 261.949 1152.71 244.065 1157.66 245.321Z" fill="#DB9680"/>
<path d="M1238.13 233.359C1238.13 233.359 1240.63 234.137 1240.99 245.74C1241.35 257.344 1237.11 258.779 1237.11 258.779C1237.11 258.779 1235.26 257.703 1235.2 253.755C1235.14 249.807 1233.41 231.505 1238.13 233.359Z" fill="#DB9680"/>
<path d="M1248.09 225.164C1248.09 225.164 1250.48 226.24 1249.4 237.784C1248.33 249.328 1243.91 250.225 1243.91 250.225C1243.91 250.225 1242.18 248.909 1242.66 245.022C1243.14 241.134 1243.61 222.711 1248.09 225.164Z" fill="#DB9680"/>
<path d="M1257.7 217.927C1257.7 217.927 1260.09 219.004 1259.01 230.548C1257.94 242.091 1253.52 242.989 1253.52 242.989C1253.52 242.989 1251.79 241.673 1252.27 237.785C1252.75 233.897 1253.22 215.415 1257.7 217.927Z" fill="#DB9680"/>
<path d="M1272.09 225.702C1272.09 225.702 1273.22 228.094 1265.16 236.289C1257.1 244.483 1253.22 242.27 1253.22 242.27C1253.22 242.27 1252.69 240.177 1255.55 237.425C1258.42 234.674 1270.18 221.036 1272.09 225.702Z" fill="#DB9680"/>
<path d="M1276.86 242.091C1276.86 242.091 1276.86 244.723 1266.29 249.149C1255.73 253.575 1252.74 250.046 1252.74 250.046C1252.74 250.046 1253.1 247.893 1256.8 246.458C1260.5 245.022 1276.92 237.007 1276.86 242.091Z" fill="#DB9680"/>
<path d="M1271.43 256.327C1271.43 256.327 1270.83 258.899 1259.49 260.155C1248.15 261.411 1246.3 257.284 1246.3 257.284C1246.3 257.284 1247.19 255.31 1251.13 254.951C1255.07 254.592 1272.86 251.302 1271.43 256.327Z" fill="#DB9680"/>
<path d="M1264.21 264.76C1264.21 264.76 1263.61 267.332 1252.27 268.588C1240.93 269.844 1239.02 265.777 1239.02 265.777C1239.02 265.777 1239.92 263.803 1243.85 263.444C1247.79 263.085 1265.7 259.855 1264.21 264.76Z" fill="#DB9680"/>
<path d="M1259.43 274.331C1259.43 274.331 1258.84 276.902 1247.49 278.159C1236.15 279.415 1234.36 275.228 1234.36 275.228C1234.36 275.228 1235.26 273.254 1239.2 272.895C1243.14 272.536 1260.86 269.246 1259.43 274.331Z" fill="#DB9680"/>
<path d="M1254.59 284.618C1254.59 284.618 1254.11 287.19 1242.65 288.985C1231.19 290.779 1229.28 286.712 1229.28 286.712C1229.28 286.712 1230.11 284.738 1234.05 284.2C1237.99 283.661 1255.84 279.714 1254.59 284.618Z" fill="#DB9680"/>
<path d="M1249.82 295.444C1249.82 295.444 1249.34 298.016 1237.88 299.811C1226.42 301.605 1224.51 297.538 1224.51 297.538C1224.51 297.538 1225.34 295.564 1229.28 295.026C1233.22 294.487 1251.07 290.48 1249.82 295.444Z" fill="#DB9680"/>
<path d="M1245.04 305.133C1245.04 305.133 1244.56 307.705 1233.1 309.5C1221.64 311.294 1219.73 307.227 1219.73 307.227C1219.73 307.227 1220.57 305.253 1224.51 304.715C1228.45 304.176 1246.3 300.109 1245.04 305.133Z" fill="#DB9680"/>
<path d="M1239.02 313.447C1239.02 313.447 1238.54 316.019 1227.08 317.814C1215.62 319.608 1213.71 315.541 1213.71 315.541C1213.71 315.541 1214.55 313.567 1218.49 313.029C1222.43 312.49 1240.33 308.543 1239.02 313.447Z" fill="#DB9680"/>
<path d="M1236.63 324.274C1236.63 324.274 1236.15 326.846 1224.69 328.64C1213.23 330.434 1211.32 326.367 1211.32 326.367C1211.32 326.367 1212.15 324.393 1216.09 323.855C1220.03 323.317 1237.88 319.309 1236.63 324.274Z" fill="#DB9680"/>
<path d="M1232.63 332.588C1232.63 332.588 1232.63 335.22 1221.82 339.287C1211.02 343.354 1208.27 339.766 1208.27 339.766C1208.27 339.766 1208.69 337.672 1212.39 336.356C1216.09 335.04 1232.86 327.504 1232.63 332.588Z" fill="#DB9680"/>
<path d="M1230.23 344.609C1230.23 344.609 1230.23 347.241 1219.43 351.309C1208.63 355.376 1205.88 351.787 1205.88 351.787C1205.88 351.787 1206.3 349.694 1210 348.378C1213.7 347.062 1230.47 339.525 1230.23 344.609Z" fill="#DB9680"/>
<path d="M1225.88 355.795C1225.88 355.795 1226.42 358.367 1216.45 364.229C1206.49 370.09 1203.2 367.04 1203.2 367.04C1203.2 367.04 1203.2 364.887 1206.66 362.973C1210.13 361.059 1225.23 350.771 1225.88 355.795Z" fill="#DB9680"/>
<path d="M1221.52 366.082C1221.52 366.082 1223.08 368.236 1216.39 377.686C1209.71 387.136 1205.47 385.701 1205.47 385.701C1205.47 385.701 1204.63 383.727 1206.96 380.557C1209.29 377.387 1218.84 361.716 1221.52 366.082Z" fill="#DB9680"/>
<path d="M1221.52 381.693C1221.52 381.693 1223.08 383.846 1216.39 393.297C1209.71 402.747 1205.47 401.312 1205.47 401.312C1205.47 401.312 1204.63 399.338 1206.96 396.168C1209.29 392.998 1218.84 377.327 1221.52 381.693Z" fill="#DB9680"/>
<path d="M1219.73 394.853C1219.73 394.853 1221.58 396.707 1216.68 407.174C1211.79 417.642 1207.31 417.043 1207.31 417.043C1207.31 417.043 1206.12 415.249 1207.91 411.66C1209.7 408.071 1216.44 391.025 1219.73 394.853Z" fill="#DB9680"/>
<path d="M1261.87 319.848C1261.87 319.848 1264.5 319.848 1268.44 330.734C1272.38 341.619 1268.74 344.251 1268.74 344.251C1268.74 344.251 1266.65 343.833 1265.34 340.064C1264.02 336.296 1256.74 319.549 1261.87 319.848Z" fill="#DB9680"/>
<path d="M1255.49 328.7C1255.49 328.7 1258.12 328.7 1262.05 339.586C1265.99 350.472 1262.35 353.104 1262.35 353.104C1262.35 353.104 1260.26 352.685 1258.95 348.917C1257.64 345.149 1250.42 328.401 1255.49 328.7Z" fill="#DB9680"/>
<path d="M1247.43 340.542C1247.43 340.542 1250.05 340.064 1255.78 350.112C1261.51 360.161 1258.41 363.391 1258.41 363.391C1258.41 363.391 1256.26 363.391 1254.35 359.862C1252.44 356.333 1242.35 341.021 1247.43 340.542Z" fill="#DB9680"/>
<path d="M1242.06 349.634C1242.06 349.634 1244.68 349.156 1250.41 359.204C1256.14 369.253 1253.04 372.483 1253.04 372.483C1253.04 372.483 1250.89 372.483 1248.98 368.954C1247.07 365.425 1236.98 350.173 1242.06 349.634Z" fill="#DB9680"/>
<path d="M1235.49 359.624C1235.49 359.624 1238.06 358.906 1244.86 368.237C1251.67 377.567 1248.92 381.096 1248.92 381.096C1248.92 381.096 1246.77 381.096 1244.51 377.986C1242.24 374.876 1230.54 360.7 1235.49 359.624Z" fill="#DB9680"/>
<path d="M1230.96 370.21C1230.96 370.21 1233.53 369.492 1240.33 378.823C1247.14 388.154 1244.39 391.683 1244.39 391.683C1244.39 391.683 1242.24 391.683 1239.97 388.572C1237.71 385.462 1225.95 371.287 1230.96 370.21Z" fill="#DB9680"/>
<path d="M1226.96 383.369C1226.96 383.369 1229.41 382.352 1237.22 390.905C1245.04 399.458 1242.72 403.226 1242.72 403.226C1242.72 403.226 1240.57 403.585 1237.94 400.654C1235.31 397.724 1222.42 384.984 1226.96 383.369Z" fill="#DB9680"/>
<path d="M1224.57 395.392C1224.57 395.392 1227.02 394.375 1234.84 402.928C1242.66 411.481 1240.33 415.249 1240.33 415.249C1240.33 415.249 1238.18 415.608 1235.55 412.677C1232.93 409.747 1219.74 397.006 1224.57 395.392Z" fill="#DB9680"/>
<path d="M1204.93 421.529C1204.93 421.529 1199.74 325.829 1156.58 271.998" stroke="#3C6257" stroke-width="1.35621" stroke-linecap="round" stroke-linejoin="round"/>
<path d="M1251.91 246.159C1220.61 281.91 1201.87 326.955 1198.55 374.397" stroke="#3C6257" stroke-width="1.35621" stroke-linecap="round" stroke-linejoin="round"/>
<path d="M1170.19 420.931C1170.19 420.931 1165.59 371.107 1138.01 332.648" stroke="#3C6257" stroke-width="1.35621" stroke-linecap="round" stroke-linejoin="round"/>
<g opacity="0.56">
<path d="M1475.27 176.182C1469.1 160.077 1457.46 146.67 1442.39 138.32C1466.98 119.222 1475.75 82.9827 1463.45 44.9294C1447.3 -4.05754 1342.33 -29.6969 1326.47 57.2955C1319.13 97.4496 1332.28 120.797 1348.53 134.405C1332.04 144.718 1319.08 162.813 1313.98 190.744C1295.26 293.159 1389.74 302.994 1389.74 302.994C1461.02 307.96 1497.9 244.84 1475.27 176.182Z" fill="white"/>
<path d="M1368.16 89.8105L1399.08 122.946" stroke="#49584B" stroke-width="1.0826" stroke-linecap="round" stroke-linejoin="round"/>
<path d="M1397.89 53.4282V421.595" stroke="#49584B" stroke-width="1.0826" stroke-linecap="round" stroke-linejoin="round"/>
<path d="M1399.08 233L1443.44 183.726" stroke="#49584B" stroke-width="1.0826" stroke-linecap="round" stroke-linejoin="round"/>
</g>
<path d="M1 421.528H1400.53" stroke="#3C6257" stroke-linecap="round" stroke-linejoin="round"/>
<path d="M363.791 281.194C362.462 281.396 361.187 281.864 360.043 282.571C358.899 283.278 357.909 284.209 357.132 285.309C356.355 286.408 355.808 287.653 355.523 288.97C355.238 290.286 355.221 291.647 355.473 292.97C356.177 303.731 371.537 304.04 374.882 297.115C378.227 290.191 371.977 279.915 363.791 281.194Z" fill="#E4B8B1"/>
<path d="M361.943 264.303C360.614 264.505 359.339 264.973 358.195 265.68C357.051 266.387 356.061 267.318 355.284 268.418C354.507 269.517 353.96 270.762 353.675 272.079C353.39 273.395 353.373 274.755 353.625 276.079C354.329 286.84 369.689 287.148 373.034 280.224C376.379 273.3 370.173 263.024 361.943 264.303Z" fill="#E4B8B1"/>
<path d="M359.653 247.015C358.324 247.216 357.049 247.685 355.905 248.392C354.761 249.098 353.771 250.03 352.994 251.129C352.218 252.228 351.67 253.474 351.385 254.79C351.1 256.106 351.083 257.467 351.335 258.79C352.039 269.551 367.399 269.86 370.744 262.936C374.089 256.012 367.884 245.736 359.653 247.015Z" fill="#E4B8B1"/>
<path d="M324.754 281.194C323.425 281.396 322.15 281.864 321.005 282.571C319.861 283.278 318.871 284.209 318.095 285.309C317.318 286.408 316.771 287.653 316.486 288.97C316.2 290.286 316.183 291.647 316.435 292.97C317.14 303.731 332.5 304.04 335.845 297.115C339.189 290.191 332.984 279.915 324.754 281.194Z" fill="#E4B8B1"/>
<path d="M337.911 325.562C337.911 325.562 329.108 327.811 332.189 338.308C335.27 348.804 350.366 347.128 352.17 339.719C353.975 332.31 345.701 323.18 337.911 325.562Z" fill="#E4B8B1"/>
<path d="M328.755 295.439C327.263 295.66 325.831 296.184 324.548 296.979C323.264 297.773 322.156 298.822 321.291 300.06C320.426 301.299 319.822 302.701 319.516 304.181C319.21 305.662 319.209 307.189 319.513 308.67C320.305 320.578 337.117 320.975 340.99 313.08C344.864 305.186 337.822 294.028 328.755 295.439Z" fill="#E4B8B1"/>
<path d="M388.923 245.295C387.594 245.496 386.319 245.965 385.175 246.672C384.031 247.379 383.041 248.31 382.264 249.409C381.487 250.509 380.94 251.754 380.655 253.07C380.37 254.387 380.353 255.747 380.605 257.07C381.309 267.831 396.669 268.14 400.014 261.216C403.359 254.292 397.153 244.016 388.923 245.295Z" fill="#E4B8B1"/>
<path d="M365.551 295.484C364.288 295.68 363.078 296.129 361.992 296.803C360.906 297.477 359.965 298.362 359.227 299.407C358.488 300.451 357.966 301.633 357.691 302.884C357.417 304.134 357.395 305.427 357.628 306.686C358.333 316.917 372.945 317.226 376.113 310.655C379.282 304.084 373.385 294.293 365.551 295.484Z" fill="#E4B8B1"/>
<path d="M407.807 302.76C405.206 302.975 402.794 304.204 401.09 306.184C399.385 308.164 398.526 310.736 398.696 313.345C398.256 323.577 412.824 324.944 416.653 318.593C420.482 312.242 415.685 302.099 407.807 302.76Z" fill="#E4B8B1"/>
<path d="M409.123 285.561C406.523 285.775 404.111 287.004 402.406 288.984C400.702 290.964 399.843 293.536 400.013 296.145C399.573 306.377 414.141 307.744 417.97 301.393C421.799 295.043 417.046 284.899 409.123 285.561Z" fill="#E4B8B1"/>
<path d="M409.123 267.611C406.523 267.825 404.111 269.055 402.406 271.035C400.702 273.015 399.843 275.586 400.013 278.196C399.573 288.427 414.141 289.795 417.97 283.444C421.799 277.093 417.046 266.949 409.123 267.611Z" fill="#E4B8B1"/>
<path d="M407.807 223.773C405.206 223.987 402.794 225.216 401.09 227.196C399.385 229.176 398.526 231.748 398.696 234.357C398.256 244.589 412.824 245.956 416.653 239.605C420.482 233.255 415.685 223.155 407.807 223.773Z" fill="#E4B8B1"/>
<path d="M325.148 363.137C325.148 363.137 317.314 366.224 321.891 375.795C326.469 385.365 340.464 381.969 340.948 374.913C341.433 367.856 332.146 360.05 325.148 363.137Z" fill="#E4B8B1"/>
<path d="M426.291 328.031C423.566 327.512 420.746 327.976 418.33 329.34C415.913 330.704 414.056 332.881 413.087 335.484C408.378 345.011 421.493 350.303 427.787 345.364C434.081 340.424 433.993 329.619 426.291 328.031Z" fill="#E4B8B1"/>
<path d="M459.342 312.948C456.618 312.429 453.798 312.893 451.382 314.257C448.965 315.621 447.108 317.798 446.139 320.402C441.43 329.928 454.545 335.22 460.839 330.28C467.133 325.341 467.045 314.492 459.342 312.948Z" fill="#E4B8B1"/>
<path d="M454.101 326.884C451.377 326.365 448.557 326.829 446.14 328.193C443.724 329.557 441.867 331.734 440.898 334.338C436.497 343.996 449.7 349.288 455.994 344.525C462.288 339.762 462.023 328.604 454.101 326.884Z" fill="#E4B8B1"/>
<path d="M448.864 343.599C446.189 342.852 443.341 343.028 440.778 344.101C438.215 345.173 436.087 347.078 434.736 349.509C428.487 358.33 440.546 365.122 447.632 360.932C454.718 356.742 456.214 346.025 448.864 343.599Z" fill="#E4B8B1"/>
<path d="M431.436 372.62C428.761 371.872 425.913 372.048 423.35 373.121C420.787 374.193 418.659 376.098 417.308 378.529C411.059 387.35 423.118 394.142 430.204 389.952C437.29 385.762 438.83 375.001 431.436 372.62Z" fill="#E4B8B1"/>
<path d="M460.706 368.694C458.026 367.981 455.183 368.2 452.642 369.313C450.1 370.426 448.01 372.368 446.711 374.824C440.637 383.644 452.872 390.348 459.914 386.07C466.956 381.792 468.144 370.987 460.706 368.694Z" fill="#E4B8B1"/>
<path d="M340.463 267.566C340.463 267.566 363.173 379.146 390.504 417.515C390.504 417.515 430.114 384.879 437.068 232.857" stroke="#3C6257" stroke-linecap="round" stroke-linejoin="round"/>
<path d="M327.306 289.089C327.306 289.089 364.1 415.487 390.463 417.56C390.463 417.56 413.789 344.658 410.004 232.902" stroke="#3C6257" stroke-linecap="round" stroke-linejoin="round"/>
<path d="M391.076 255.526C391.076 255.526 386.895 322.915 390.504 417.515C390.504 417.515 420.036 415.222 458.282 318.814" stroke="#3C6257" stroke-linecap="round" stroke-linejoin="round"/>
<path d="M390.508 417.559C371.715 361.505 362.252 255.57 362.252 255.57" stroke="#3C6257" stroke-linecap="round" stroke-linejoin="round"/>
<path d="M318.24 350.215C318.24 350.215 340.642 394.891 371.934 420.073" stroke="#3C6257" stroke-linecap="round" stroke-linejoin="round"/>
<path d="M410.443 420.118C429.038 408.337 445.265 393.169 458.283 375.397" stroke="#3C6257" stroke-linecap="round" stroke-linejoin="round"/>
</svg>
