<?xml version="1.0" encoding="utf-8"?>
<!-- Generator: Adobe Illustrator 16.0.0, SVG Export Plug-In . SVG Version: 6.00 Build 0)  -->
<!DOCTYPE svg PUBLIC "-//W3C//DTD SVG 1.1//EN" "http://www.w3.org/Graphics/SVG/1.1/DTD/svg11.dtd">
<svg version="1.1" id="Layer_1" xmlns="http://www.w3.org/2000/svg" xmlns:xlink="http://www.w3.org/1999/xlink" x="0px" y="0px"
	 width="88px" height="88px" viewBox="0 0 88 88" enable-background="new 0 0 88 88" xml:space="preserve">
<path fill="#30E329" d="M4.583,78.834c2.531,0,4.583-2.053,4.583-4.584s-2.052-4.584-4.583-4.584S0,71.719,0,74.25
	S2.052,78.834,4.583,78.834z"/>
<path fill="#1BB212" d="M84.334,31.445c0-13.252-10.759-24.013-24.008-24.013H49.369H29.147c-12.252,0-22.114,9.665-22.513,21.821
	c1.195-0.398,1.195-0.398,0,0c0,0.199,0,0.498,0,0.697v24.012v4.186c0,12.455,10.061,22.518,22.513,22.518h55.187V53.863V31.445z"/>
<path fill="#30E329" d="M48.273,16.5c0-3.188,0.398-6.277,1.096-9.167H29.147c-12.153,0-22.114,9.665-22.513,21.82
	c1.195-0.398,2.391-0.598,3.686-0.598c7.073,0,12.751,5.779,12.751,12.953c0,7.175-5.678,12.953-12.751,12.953
	c-1.295,0-2.59-0.199-3.686-0.598v4.085c0,12.455,10.061,22.518,22.513,22.518h55.187V53.765
	C64.411,53.466,48.273,36.926,48.273,16.5z"/>
<path fill="#FFFFFF" d="M52.73,44.119c0,1.894-1.432,3.388-3.246,3.388H28.578c-1.814,0-3.246-1.494-3.246-3.388
	c0-1.893,1.432-3.388,3.246-3.388h20.906C51.299,40.731,52.73,42.227,52.73,44.119z"/>
<path fill="#00FF36" d="M62.406,47.508c-1.984,0-3.593-1.606-3.593-3.587s1.608-3.587,3.593-3.587S66,41.939,66,43.92
	S64.391,47.508,62.406,47.508z"/>
<path fill="#30E329" d="M87.289,11l-1.355-0.616l0.616-1.355c0.247-0.616,0-1.355-0.616-1.602c-0.615-0.247-1.354,0-1.602,0.616
	l-0.615,1.355l-1.355-0.616c-0.615-0.247-1.354,0-1.602,0.616c-0.246,0.616,0,1.355,0.617,1.602l1.354,0.616l-0.616,1.355
	c-0.246,0.616,0,1.355,0.616,1.602s1.354,0,1.601-0.616l0.617-1.354l1.354,0.616c0.616,0.247,1.354,0,1.601-0.616
	C88.151,11.985,87.904,11.246,87.289,11z"/>
</svg>
