<svg width="40" height="40" viewBox="0 0 40 40" fill="none" xmlns="http://www.w3.org/2000/svg">
<path d="M7.63846 28.868C5.9218 27.0447 5.00013 24.9997 5.00013 21.6847C5.00013 15.8513 9.09513 10.623 15.0501 8.03801L16.5385 10.3347C10.9801 13.3413 9.89347 17.243 9.46013 19.703C10.3551 19.2397 11.5268 19.078 12.6751 19.1847C15.6818 19.463 18.0518 21.9313 18.0518 24.9997C18.0518 26.5468 17.4372 28.0305 16.3433 29.1245C15.2493 30.2184 13.7656 30.833 12.2185 30.833C10.4301 30.833 8.72013 30.0163 7.63846 28.868ZM24.3051 28.868C22.5885 27.0447 21.6668 24.9997 21.6668 21.6847C21.6668 15.8513 25.7618 10.623 31.7168 8.03801L33.2051 10.3347C27.6468 13.3413 26.5601 17.243 26.1268 19.703C27.0218 19.2397 28.1935 19.078 29.3418 19.1847C32.3485 19.463 34.7168 21.9313 34.7168 24.9997C34.7168 26.5468 34.1022 28.0305 33.0083 29.1245C31.9143 30.2184 30.4306 30.833 28.8835 30.833C27.0951 30.833 25.3851 30.0163 24.3035 28.868H24.3051Z" fill="#E2643F"/>
</svg>
