<svg width="106" height="18" viewBox="0 0 106 18" fill="none" xmlns="http://www.w3.org/2000/svg">
<path d="M8.99942 1.50098L11.3169 6.19598L16.4994 6.95348L12.7494 10.606L13.6344 15.766L8.99942 13.3285L4.36442 15.766L5.24942 10.606L1.49942 6.95348L6.68192 6.19598L8.99942 1.50098Z" fill="#DF532A"/>
<path d="M30.9994 1.50098L33.3169 6.19598L38.4994 6.95348L34.7494 10.606L35.6344 15.766L30.9994 13.3285L26.3644 15.766L27.2494 10.606L23.4994 6.95348L28.6819 6.19598L30.9994 1.50098Z" fill="#DF532A"/>
<path d="M52.9994 1.50098L55.3169 6.19598L60.4994 6.95348L56.7494 10.606L57.6344 15.766L52.9994 13.3285L48.3644 15.766L49.2494 10.606L45.4994 6.95348L50.6819 6.19598L52.9994 1.50098Z" fill="#DF532A"/>
<path d="M74.9994 1.50098L77.3169 6.19598L82.4994 6.95348L78.7494 10.606L79.6344 15.766L74.9994 13.3285L70.3644 15.766L71.2494 10.606L67.4994 6.95348L72.6819 6.19598L74.9994 1.50098Z" fill="#DF532A"/>
<path d="M96.9994 1.50098L99.3169 6.19598L104.499 6.95348L100.749 10.606L101.634 15.766L96.9994 13.3285L92.3644 15.766L93.2494 10.606L89.4994 6.95348L94.6819 6.19598L96.9994 1.50098Z" fill="#DF532A"/>
</svg>
